<?xml version="1.0" encoding="UTF-8" standalone="no"?>
<!DOCTYPE svg PUBLIC "-//W3C//DTD SVG 20010904//EN" "http://www.w3.org/TR/2001/REC-SVG-20010904/DTD/svg10.dtd">

<svg xmlns="http://www.w3.org/2000/svg" width="3.33333in" height="3.33333in" viewBox="0 0 1000 1000">
   <path fill="#7c4dff" stroke="black" stroke-width="1" d="M 362.50,223.00
           C 362.50,223.00 500.50,223.50 500.50,223.50
             500.50,223.50 776.00,499.25 776.00,499.25
             776.00,499.25 503.75,773.50 503.75,773.50
             503.75,773.50 504.00,635.00 504.00,635.00
             504.00,635.00 638.25,499.50 638.25,499.50
             638.25,499.50 362.50,223.00 362.50,223.00 Z" />
   <path fill="#651fff" stroke="black" stroke-width="1" d="M 183.75,222.50
           C 183.75,222.50 332.50,222.25 332.50,222.25
             332.50,222.25 608.50,500.00 608.50,500.00
             608.50,500.00 534.50,574.50 534.50,574.50
             534.50,574.50 183.75,222.50 183.75,222.50 Z" />
</svg>
