<?xml version="1.0" encoding="utf-8"?>
<svg width="256px" height="256px" viewBox="0 0 256 256" version="1.1" xmlns:xlink="http://www.w3.org/1999/xlink" xmlns="http://www.w3.org/2000/svg">
  <defs>
    <linearGradient gradientUnits="userSpaceOnUse" x1="0" y1="0" x2="77.002556" y2="104.41627" id="gradient_1">
      <stop offset="0%" stop-color="#7C4DFF" />
      <stop offset="100%" stop-color="#651FFF" />
    </linearGradient>
    <rect width="256" height="256" id="artboard_1" />
    <clipPath id="clip_1">
      <use xlink:href="#artboard_1" clip-rule="evenodd" />
    </clipPath>
  </defs>
  <g id="Artboard" clip-path="url(#clip_1)">
    <use xlink:href="#artboard_1" stroke="none" fill="#FFFFFF" />
    <path d="M80 121L138.501 121Q139.446 121 140.39 121.046Q141.334 121.093 142.275 121.185Q143.215 121.278 144.15 121.417Q145.085 121.555 146.012 121.74Q146.939 121.924 147.855 122.154Q148.772 122.383 149.677 122.658Q150.581 122.932 151.471 123.25Q152.361 123.569 153.234 123.931Q154.107 124.292 154.961 124.696Q155.816 125.1 156.649 125.546Q157.483 125.991 158.293 126.477Q159.104 126.963 159.89 127.488Q160.676 128.013 161.435 128.576Q162.194 129.139 162.924 129.739Q163.655 130.338 164.355 130.973Q165.056 131.608 165.724 132.276Q166.392 132.944 167.027 133.645Q167.662 134.345 168.261 135.076Q168.861 135.806 169.424 136.565Q169.987 137.324 170.512 138.11Q171.037 138.896 171.523 139.707Q172.009 140.517 172.454 141.351Q172.9 142.184 173.304 143.039Q173.708 143.893 174.069 144.766Q174.431 145.639 174.749 146.529Q175.068 147.419 175.342 148.323Q175.617 149.228 175.846 150.144Q176.076 151.061 176.26 151.988Q176.445 152.915 176.583 153.85Q176.722 154.785 176.815 155.725Q176.907 156.666 176.954 157.61Q177 158.554 177 159.499L177 159.501Q177 160.446 176.954 161.39Q176.907 162.334 176.815 163.275Q176.722 164.215 176.583 165.15Q176.445 166.085 176.26 167.012Q176.076 167.939 175.846 168.855Q175.617 169.772 175.342 170.677Q175.068 171.581 174.749 172.471Q174.431 173.361 174.069 174.234Q173.708 175.107 173.304 175.961Q172.9 176.816 172.454 177.649Q172.009 178.483 171.523 179.293Q171.037 180.104 170.512 180.89Q169.987 181.676 169.424 182.435Q168.861 183.194 168.261 183.924Q167.662 184.655 167.027 185.355Q166.392 186.056 165.724 186.724Q165.056 187.392 164.355 188.027Q163.655 188.662 162.924 189.261Q162.194 189.861 161.435 190.424Q160.676 190.987 159.89 191.512Q159.104 192.037 158.293 192.523Q157.483 193.009 156.649 193.454Q155.816 193.9 154.961 194.304Q154.107 194.708 153.234 195.069Q152.361 195.431 151.471 195.749Q150.581 196.068 149.677 196.342Q148.772 196.617 147.855 196.846Q146.939 197.076 146.012 197.26Q145.085 197.445 144.15 197.583Q143.215 197.722 142.275 197.815Q141.334 197.907 140.39 197.954Q139.446 198 138.501 198L118.499 198Q117.554 198 116.61 197.954Q115.666 197.907 114.725 197.815Q113.785 197.722 112.85 197.583Q111.915 197.445 110.988 197.26Q110.061 197.076 109.144 196.846Q108.228 196.617 107.323 196.342Q106.419 196.068 105.529 195.749Q104.639 195.431 103.766 195.069Q102.893 194.708 102.039 194.304Q101.184 193.9 100.351 193.454Q99.5172 193.009 98.7065 192.523Q97.8959 192.037 97.1101 191.512Q96.3243 190.987 95.5652 190.424Q94.8061 189.861 94.0755 189.261Q93.3449 188.662 92.6446 188.027Q91.9444 187.392 91.2761 186.724Q90.6078 186.056 89.9731 185.355Q89.3384 184.655 88.7389 183.925Q88.1393 183.194 87.5763 182.435Q87.0133 181.676 86.4882 180.89Q85.9632 180.104 85.4773 179.293Q84.9914 178.483 84.5459 177.649Q84.1004 176.816 83.6963 175.961Q83.2922 175.107 82.9305 174.234Q82.5689 173.361 82.2505 172.471Q81.9321 171.581 81.6578 170.677Q81.3834 169.772 81.1538 168.855Q80.9241 167.939 80.7397 167.012Q80.5554 166.085 80.4167 165.15Q80.278 164.215 80.1854 163.275Q80.0927 162.334 80.0464 161.39Q80 160.446 80 159.501L80 121Z" id="Rectangle-2" fill="#D3D3D3" fill-rule="evenodd" stroke="none" />
    <path d="M118.003 58C155.143 57.9827 157.003 96.0001 157.003 96.0001C157.003 96.0001 157.02 125.514 118.003 146C78.9851 166.487 80.0025 162 80.0025 162L80.0025 96.0001C80.0025 96.0001 80.8621 58.0173 118.003 58Z" id="New-shape-6" fill="url(#gradient_1)" fill-rule="evenodd" stroke="none" />
  </g>
</svg>